<?xml version="1.0" encoding="utf-8"?>
<!-- Generator: Adobe Illustrator 24.0.1, SVG Export Plug-In . SVG Version: 6.00 Build 0)  -->
<svg version="1.1" id="Calque_1" xmlns="http://www.w3.org/2000/svg" xmlns:xlink="http://www.w3.org/1999/xlink" x="0px" y="0px"
	 viewBox="0 0 595.3 841.9" style="enable-background:new 0 0 595.3 841.9;" xml:space="preserve">
<g>
	<path d="M92,197.2c0.5-1,1-1.9,1.5-2.9c4-7.9,14.2-10,21-4.3c1.5,1.3,2.9,2.8,4.3,4.2c116.8,116.7,233.5,233.5,350.3,350.3
		c6.4,6.4,8.2,12.5,4.3,18.2c-2,3-5.7,4.9-8.6,7.2c-2,0-4,0-6,0c-3.2-2.3-6.8-4.1-9.6-6.8c-17.6-17.4-35.1-35-52.6-52.5
		c-0.9-0.9-1.3-2.4-1.9-3.6c-0.6,0.4-1.1,0.8-1.7,1.2c0,1.2,0,2.4,0,3.5c0,13.6-0.3,27.1,0.1,40.7c0.2,8.5-2.5,14.5-10.7,17.5
		c-2,0-4,0-6,0c-2.8-1.8-5.8-3.3-8.4-5.4c-42.5-33.9-85-67.9-127.5-101.7c-1.7-1.3-4.2-2.3-6.3-2.3c-19.5-0.2-38.9-0.1-58.4-0.1
		c-17.4,0-29.1-11.8-29.1-29.2c0-35.3,0-70.6,0-105.9c0-17.4,11.7-29.1,29.1-29.2c1.8,0,3.6,0,5.3,0c0.1-0.4,0.3-0.7,0.4-1.1
		c-1-0.9-2.2-1.6-3.1-2.6c-26.6-26.5-53.2-53.1-79.6-79.7c-2.7-2.8-4.6-6.4-6.8-9.6C92,201.1,92,199.1,92,197.2z"/>
	<path d="M392.9,428.9c-47.8-47.8-95.2-95.2-142.8-142.8c6.6-5.3,13.5-10.8,20.3-16.2c33.2-26.4,66.3-52.8,99.5-79.3
		c4.8-3.8,9.8-5.3,15.6-2.5c5.7,2.8,7.7,7.7,7.7,13.8c0,74.6,0,149.2,0,223.8C393,426.7,392.9,427.7,392.9,428.9z"/>
</g>
</svg>
