<?xml version="1.0" encoding="utf-8"?>
<!-- Generator: Adobe Illustrator 24.0.1, SVG Export Plug-In . SVG Version: 6.00 Build 0)  -->
<svg version="1.1" id="Calque_1" xmlns="http://www.w3.org/2000/svg" xmlns:xlink="http://www.w3.org/1999/xlink" x="0px" y="0px"
	 viewBox="0 0 595.28 841.89" style="enable-background:new 0 0 595.28 841.89;" xml:space="preserve">
<style type="text/css">
	.st0{fill:#FFFFFF;}
</style>
<g>
	<path class="st0" d="M92,197.16c0.51-0.96,1.02-1.92,1.52-2.89c4.04-7.91,14.18-10,20.99-4.26c1.52,1.28,2.88,2.76,4.29,4.17
		C235.57,310.93,352.33,427.69,469.1,544.45c6.38,6.38,8.16,12.47,4.26,18.24c-2.01,2.99-5.67,4.86-8.59,7.24c-2,0-3.99,0-5.99,0
		c-3.22-2.25-6.83-4.09-9.59-6.81c-17.64-17.39-35.11-34.96-52.57-52.53c-0.92-0.92-1.28-2.4-1.91-3.62
		c-0.56,0.41-1.13,0.83-1.69,1.24c0,1.18,0,2.37,0,3.55c0,13.57-0.29,27.15,0.1,40.7c0.24,8.47-2.49,14.48-10.7,17.46
		c-2,0-3.99,0-5.99,0c-2.81-1.78-5.82-3.31-8.4-5.37c-42.53-33.88-84.98-67.85-127.54-101.69c-1.67-1.33-4.19-2.25-6.32-2.27
		c-19.46-0.17-38.92-0.07-58.38-0.11c-17.4-0.04-29.07-11.75-29.08-29.18c-0.03-35.3-0.02-70.61,0-105.91
		c0.01-17.36,11.71-29.09,29.09-29.24c1.78-0.02,3.55,0,5.33,0c0.14-0.37,0.28-0.74,0.42-1.11c-1.04-0.86-2.17-1.65-3.12-2.6
		c-26.56-26.54-53.15-53.05-79.59-79.71c-2.73-2.75-4.58-6.38-6.84-9.6C92,201.15,92,199.15,92,197.16z"/>
	<path class="st0" d="M392.88,428.92c-47.75-47.75-95.17-95.17-142.81-142.81c6.65-5.31,13.45-10.75,20.25-16.18
		c33.16-26.42,66.33-52.82,99.46-79.28c4.79-3.83,9.84-5.34,15.58-2.5c5.68,2.81,7.7,7.66,7.7,13.81
		c-0.05,74.59-0.03,149.18-0.03,223.77C393.02,426.69,392.94,427.66,392.88,428.92z"/>
</g>
</svg>
