<?xml version="1.0" encoding="utf-8"?>
<!-- Generator: Adobe Illustrator 24.0.1, SVG Export Plug-In . SVG Version: 6.00 Build 0)  -->
<svg version="1.1" id="Calque_1" xmlns="http://www.w3.org/2000/svg" xmlns:xlink="http://www.w3.org/1999/xlink" x="0px" y="0px"
	 viewBox="0 0 595.28 841.89" style="enable-background:new 0 0 595.28 841.89;" xml:space="preserve">
<style type="text/css">
	.st0{fill:#FFFFFF;}
</style>
<path class="st0" d="M357.08,367.96c6.46-6.93,12.75-13.67,19.68-21.1c0,19.17,0,37.23,0,55.63c-18.39,0-36.64,0-53.67,0
	c5.75-5.87,12.17-12.41,18.48-18.85c-14.32-17.35-45.04-25.58-70.71-12.93c-26.13,12.89-39.47,42.3-31.66,70.53
	c7.83,28.29,35.74,46.91,65.93,43.56c27.34-3.04,52.59-25.05,54.05-59.55c6.83,0,13.69,0,20.53,0
	c3.54,30.91-22.79,66.56-56.89,77.26c-37.89,11.89-79.27-4.97-97.71-39.8c-18.16-34.3-9.28-76.72,20.91-101.07
	C276.38,337.18,323.2,336.02,357.08,367.96z"/>
</svg>
