<?xml version="1.0" encoding="utf-8"?>
<!-- Generator: Adobe Illustrator 24.0.1, SVG Export Plug-In . SVG Version: 6.00 Build 0)  -->
<svg version="1.1" id="Calque_1" xmlns="http://www.w3.org/2000/svg" xmlns:xlink="http://www.w3.org/1999/xlink" x="0px" y="0px"
	 viewBox="0 0 595.3 841.9" style="enable-background:new 0 0 595.3 841.9;" xml:space="preserve">
<style type="text/css">
	.st0{fill:#FFFFFF;}
</style>
<g>
	<path class="st0" d="M501.8,396.1c-0.7-37.1-12.4-70.7-34.7-100.8c-19.2-25.9-43.8-45.2-73.7-58c-4.8-2.1-9.6-2.6-14.4-0.1
		c-9.9,5.1-11.3,17.6-2.4,24.2c3.8,2.8,8.4,4.6,12.8,6.7c57,28.1,90.6,90.2,80.7,151.8c-8.4,52.5-37.7,90.6-87.2,113.5
		c-2.6,1.2-5.2,2.8-7.3,4.7c-3.9,3.4-5.5,7.8-4.5,12.8c2,10,12.2,14.7,22.3,10.4C460.3,532.7,502.6,468.3,501.8,396.1z M442.2,399.1
		c-1.3-9.1-1.8-18.4-4.2-27.3c-9.9-37.3-32.4-64.7-68.9-80.6c-8.5-3.7-17.1-0.7-20.8,7c-3.6,7.3-0.6,15.1,7.5,19.5
		c3.5,1.9,7,3.6,10.4,5.5c29.2,17.2,44.6,42.6,44.8,75.6c0.1,33-15.1,58.6-44.2,75.9c-3.9,2.3-8.1,4.2-12.1,6.5
		c-6.1,3.5-8.8,9.3-7.5,15.4c2.1,9.8,12.1,14.5,22.1,10.4C412.4,489.5,441.3,446,442.2,399.1z M380.8,399.3
		c0-23.8-14.3-45.3-36.1-53.9c-2.5-1-5.5-1.5-8.2-1.2c-6.1,0.6-10.5,4.1-12.4,9.8c-2,5.7-0.8,11,4,14.9c3.3,2.7,6.8,5.2,10.6,7.4
		c16.2,9.5,15.9,36.9,0.1,45.9c-2.6,1.5-5.2,3.2-7.7,5c-3.4,2.5-6.6,5.2-7.5,9.6c-1.2,5.8,0.4,10.6,5.1,14.4
		c4.8,3.8,10.1,4.5,15.8,2.2C366.3,444.5,380.8,423,380.8,399.3z"/>
	<path class="st0" d="M108.6,351.4c3.9-8.7,10.8-11.5,20.3-11.2c17.8,0.5,35.6,0.2,53.4,0c2,0,4.5-1,5.9-2.4
		c25.3-24.4,50.4-49,75.5-73.5c7-6.8,16.6-6.9,22.5,0.2c2,2.4,2.6,5.8,3.8,8.7c0.3,0.9,0.1,2,0.1,3c0,82.1,0,164.1,0,246.2
		c0,4.1-0.5,7.9-3.2,11.2c-5.8,7-15.5,7.7-22.3,1.4c-5.2-4.8-10.2-9.9-15.2-14.8c-20.4-19.8-40.7-39.7-61-59.6
		c-1.8-1.7-3.5-2.4-6-2.4c-17.8,0.1-35.6-0.3-53.4,0.2c-9.5,0.2-16.4-2.5-20.3-11.3C108.6,415.2,108.6,383.3,108.6,351.4z"/>
	<path class="st0" d="M501.8,396.1c0.8,72.2-41.5,136.6-108.5,165.1c-10.2,4.3-20.3-0.3-22.3-10.4c-1-5.1,0.6-9.5,4.5-12.8
		c2.2-1.9,4.7-3.5,7.3-4.7c49.6-22.9,78.8-61,87.2-113.5c9.9-61.6-23.6-123.7-80.7-151.8c-4.3-2.1-9-3.9-12.8-6.7
		c-8.9-6.6-7.5-19.2,2.4-24.2c4.8-2.4,9.6-2,14.4,0.1c30,12.9,54.6,32.2,73.7,58C489.4,325.4,501.1,359,501.8,396.1z"/>
	<path class="st0" d="M442.2,399.1c-0.8,47-29.8,90.4-72.9,108.2c-10,4.1-20-0.5-22.1-10.4c-1.3-6.1,1.4-11.9,7.5-15.4
		c4-2.3,8.1-4.2,12.1-6.5c29.1-17.4,44.3-42.9,44.2-75.9c-0.1-33-15.5-58.5-44.8-75.6c-3.4-2-7-3.7-10.4-5.5
		c-8.1-4.4-11-12.2-7.5-19.5c3.7-7.7,12.3-10.7,20.8-7c36.4,15.9,58.9,43.3,68.9,80.6C440.3,380.7,440.8,390,442.2,399.1z"/>
	<path class="st0" d="M380.8,399.3c0,23.7-14.5,45.2-36.3,53.9c-5.7,2.3-11,1.6-15.8-2.2c-4.7-3.7-6.3-8.6-5.1-14.4
		c0.9-4.4,4.1-7.1,7.5-9.6c2.5-1.8,5-3.5,7.7-5c15.8-9,16.1-36.4-0.1-45.9c-3.7-2.2-7.3-4.7-10.6-7.4c-4.8-4-6-9.3-4-14.9
		c2-5.7,6.3-9.1,12.4-9.8c2.7-0.3,5.7,0.3,8.2,1.2C366.5,354,380.8,375.5,380.8,399.3z"/>
</g>
</svg>
