<?xml version="1.0" encoding="utf-8"?>
<!-- Generator: Adobe Illustrator 24.0.1, SVG Export Plug-In . SVG Version: 6.00 Build 0)  -->
<svg version="1.1" id="Calque_1" xmlns="http://www.w3.org/2000/svg" xmlns:xlink="http://www.w3.org/1999/xlink" x="0px" y="0px"
	 viewBox="0 0 595.3 841.9" style="enable-background:new 0 0 595.3 841.9;" xml:space="preserve">
<g>
	<path d="M119,327.1c0.2-0.3,0.5-0.6,0.6-1c3.6-12.6,12.1-19,25.2-19.1c18.2,0,36.4-0.1,54.6,0c3.2,0,5.6-0.9,8-3
		c40-35.1,80.1-70.2,120.1-105.2c1-0.9,2-1.9,3.2-2.5c4.5-2.5,10-0.3,11.4,4.7c0.4,1.5,0.5,3.2,0.5,4.8c0,120.7,0,241.4,0.1,362.1
		c0,4.8-1.4,8.5-5.9,10.6c-1.5,0-3,0-4.5,0c-1.7-1.3-3.5-2.4-5-3.8c-40.1-35-80.2-70.1-120.2-105.2c-2.2-1.9-4.4-2.8-7.3-2.8
		c-18.3,0.1-36.7,0.3-55-0.1c-4.5-0.1-9.2-1.2-13.3-3.1c-7-3.2-10.5-9.6-12.5-16.8C119,406.9,119,367,119,327.1z"/>
	<path d="M502.3,389.5c-0.3,47.5-11.6,95.1-34.5,139.8c-2.1,4.1-4.9,5.9-8.5,5.5c-3.5-0.4-6.7-2.8-6.9-6.3c-0.1-2.4,0.6-5.2,1.7-7.4
		c10.3-20.6,18.4-42,23.7-64.4c16.4-69.9,8.9-137.1-22.6-201.6c-0.8-1.6-1.6-3.1-2.3-4.7c-1.9-4.3-0.5-8.6,3.3-10.6
		c4-2.1,8.6-0.9,10.8,3.5c4.1,8.3,8.2,16.5,11.7,25C494.4,306.3,502.1,345.8,502.3,389.5z"/>
	<path d="M454.3,394.7c-0.1,26.7-6.4,59.8-19.4,91.6c-2.1,5.2-6,7.4-10.4,6c-4.7-1.6-6.3-6.2-4.5-11.7c4.1-12.6,8.9-25.1,11.9-38.1
		c11.5-49.8,7.7-98.7-10.8-146.4c-0.5-1.2-1-2.3-1.4-3.5c-1.7-4.8,0.1-9.2,4.4-10.8c4.1-1.6,8.7,0.3,10.3,4.9
		c4.3,12.2,8.7,24.4,12.1,36.9C452.1,343.9,454.4,365.9,454.3,394.7z"/>
	<path d="M406.5,386.9c-0.1,18-2.2,35.8-6.7,53.2c-1.4,5.3-5.2,8.2-9.6,7.2c-4.9-1.1-7.3-5.4-5.9-11.1c8.2-32.9,8.2-65.8,0-98.7
		c-1.4-5.5,0.8-9.8,5.5-11c4.6-1.2,8.5,1.6,10,7.1C404.3,351.2,406.4,368.9,406.5,386.9z"/>
</g>
</svg>
