<?xml version="1.0" encoding="utf-8"?>
<!-- Generator: Adobe Illustrator 24.0.1, SVG Export Plug-In . SVG Version: 6.00 Build 0)  -->
<svg version="1.1" id="Calque_1" xmlns="http://www.w3.org/2000/svg" xmlns:xlink="http://www.w3.org/1999/xlink" x="0px" y="0px"
	 viewBox="0 0 595.28 841.89" style="enable-background:new 0 0 595.28 841.89;" xml:space="preserve">
<style type="text/css">
	.st0{fill:#FFFFFF;}
</style>
<g>
	<path class="st0" d="M119,327.06c0.19-0.32,0.46-0.61,0.56-0.95c3.62-12.59,12.06-19.03,25.19-19.06
		c18.2-0.04,36.41-0.08,54.61,0.05c3.2,0.02,5.59-0.86,8.01-2.98c40-35.12,80.08-70.16,120.15-105.2c1.03-0.9,2.04-1.87,3.22-2.54
		c4.47-2.54,9.97-0.3,11.37,4.66c0.43,1.53,0.5,3.2,0.5,4.8c0.02,120.7,0,241.39,0.07,362.09c0,4.83-1.42,8.45-5.85,10.64
		c-1.5,0-2.99,0-4.49,0c-1.68-1.26-3.45-2.42-5.02-3.8c-40.09-35.05-80.18-70.1-120.21-105.23c-2.21-1.94-4.39-2.78-7.34-2.76
		c-18.33,0.12-36.67,0.25-55-0.08c-4.46-0.08-9.2-1.21-13.26-3.06c-7.01-3.19-10.46-9.62-12.5-16.82
		C119,406.9,119,366.98,119,327.06z"/>
	<path class="st0" d="M502.27,389.51c-0.31,47.52-11.57,95.07-34.46,139.82c-2.09,4.09-4.93,5.92-8.45,5.52
		c-3.52-0.39-6.72-2.84-6.92-6.29c-0.14-2.44,0.62-5.17,1.74-7.4c10.31-20.57,18.44-41.96,23.69-64.36
		c16.37-69.85,8.87-137.07-22.56-201.59c-0.76-1.57-1.61-3.1-2.3-4.7c-1.85-4.27-0.46-8.59,3.33-10.61
		c4.04-2.15,8.6-0.93,10.79,3.48c4.1,8.25,8.19,16.52,11.69,25.04C494.37,306.33,502.1,345.83,502.27,389.51z"/>
	<path class="st0" d="M454.33,394.67c-0.13,26.74-6.41,59.81-19.38,91.56c-2.12,5.19-6.05,7.42-10.43,5.95
		c-4.7-1.58-6.29-6.23-4.5-11.7c4.14-12.64,8.92-25.15,11.91-38.06c11.53-49.82,7.72-98.69-10.79-146.38
		c-0.45-1.16-0.95-2.3-1.36-3.48c-1.68-4.78,0.14-9.18,4.43-10.79c4.14-1.56,8.68,0.27,10.29,4.89c4.25,12.21,8.69,24.4,12.06,36.86
		C452.06,343.9,454.36,365.87,454.33,394.67z"/>
	<path class="st0" d="M406.46,386.93c-0.09,18.02-2.22,35.77-6.7,53.24c-1.36,5.3-5.19,8.18-9.6,7.2
		c-4.89-1.09-7.26-5.44-5.85-11.09c8.21-32.91,8.22-65.81-0.01-98.73c-1.38-5.52,0.82-9.75,5.51-10.98c4.58-1.2,8.54,1.64,9.96,7.13
		C404.26,351.16,406.36,368.92,406.46,386.93z"/>
</g>
</svg>
